<svg version="1.1" id="Layer_1" xmlns="http://www.w3.org/2000/svg" xmlns:xlink="http://www.w3.org/1999/xlink" x="0px" y="0px"
	 width="100%" viewBox="0 0 120 83" enable-background="new 0 0 120 83" xml:space="preserve">
<path fill="#F5F5F5" opacity="1.000000" stroke="none" 
	d="
M32.307640,83.784912 
	C31.250000,84.000000 30.500000,84.000000 29.375000,84.000000 
	C26.170050,80.036026 28.638903,75.263435 27.114868,70.804184 
	C24.985249,78.858635 23.982368,79.072388 17.834099,73.301895 
	C16.324518,71.885071 15.188014,69.772453 12.376936,70.071091 
	C10.964865,71.551826 11.469323,73.145149 11.393560,75.007416 
	C11.409772,75.629417 11.414001,75.883247 11.420504,76.527367 
	C11.262995,79.079025 11.803765,81.339844 10.255509,83.670189 
	C8.933331,84.000000 7.866662,84.000000 6.399996,84.000000 
	C3.675290,81.149025 4.549047,77.748611 4.541055,74.568604 
	C4.532534,71.177940 4.087518,68.080208 1.281597,65.296310 
	C1.000000,44.732773 1.075662,24.464943 0.913841,4.199011 
	C0.891042,1.343714 1.601006,0.910526 4.280976,0.926200 
	C26.540928,1.056393 48.801971,1.000000 71.531342,1.000000 
	C72.598541,2.649645 70.894547,3.204516 70.270752,4.634898 
	C68.763115,7.685297 69.333786,9.949466 72.145103,11.867767 
	C74.849403,13.105291 77.232674,12.743698 78.460358,10.515179 
	C79.907974,7.887424 79.060555,5.156707 76.957138,2.554318 
	C76.711884,2.036072 76.659851,1.808374 76.803909,1.290338 
	C90.452194,1.000000 103.907074,1.145671 117.354691,0.897426 
	C120.710487,0.835477 121.075836,1.940789 121.063202,4.830303 
	C120.953568,29.907377 121.000000,54.985130 121.000000,80.531342 
	C119.377327,82.231949 118.225021,81.066673 116.742981,79.969025 
	C114.557594,77.415550 113.441513,74.589798 111.588348,72.237503 
	C108.304138,68.068726 106.792618,68.050850 103.700691,72.285027 
	C100.968300,76.026840 98.464348,79.935638 95.245918,83.750931 
	C93.933327,84.000000 92.866661,84.000000 91.399994,84.000000 
	C88.023956,80.112541 90.500908,75.294510 88.692802,70.535164 
	C86.246452,74.925049 88.817245,79.645576 86.236351,83.713013 
	C84.933327,84.000000 83.866661,84.000000 82.399994,84.000000 
	C80.791237,82.731812 81.224731,81.238693 81.458984,79.424736 
	C81.708725,76.169769 81.906731,73.269859 80.196808,70.493019 
	C79.006905,71.078613 79.448730,72.099678 79.327454,73.314606 
	C79.291283,74.597313 79.134628,75.519569 78.512512,76.682831 
	C74.070793,77.676567 72.446487,73.821022 69.651283,72.017784 
	C68.194557,71.078026 67.218529,68.724396 65.113304,69.703163 
	C63.204231,70.590729 63.573132,72.824165 63.399849,74.620995 
	C63.115646,77.567993 64.005592,80.639107 62.233906,83.726852 
	C61.250000,84.000000 60.500000,84.000000 59.375000,84.000000 
	C57.000881,81.790283 57.675270,79.045250 57.480846,76.469955 
	C57.324463,74.398521 57.919876,72.211586 56.400196,69.900475 
	C54.340218,74.441490 56.779854,79.313454 54.236427,83.713181 
	C48.977909,84.000000 43.955814,84.000000 38.466862,84.000000 
	C37.032402,83.012352 36.742760,81.793800 36.827049,80.078903 
	C36.993973,78.946541 37.269608,78.250259 37.914482,77.326111 
	C38.331287,76.892281 38.517120,76.740791 39.021233,76.437263 
	C39.563286,76.230118 39.787056,76.175018 40.347801,76.094109 
	C40.904705,76.079636 41.124630,76.090965 41.665527,76.142029 
	C42.619057,76.265884 43.252747,76.326439 44.219738,76.238556 
	C45.156467,76.156792 45.764622,76.188530 46.553108,76.139175 
	C46.733444,76.057587 46.594303,75.700119 46.594303,75.700119 
	C46.594303,75.700119 46.187962,75.796455 45.867531,75.811371 
	C43.208740,75.199478 40.686031,75.748352 38.119389,74.497040 
	C37.538807,69.927979 37.790577,69.762352 44.987831,69.527763 
	C42.148300,69.402283 39.307949,69.368729 36.169670,69.570259 
	C35.504051,69.790924 35.176712,70.003166 34.779869,70.575142 
	C34.388313,74.555275 35.902390,78.346252 33.909737,82.293533 
	C33.444897,83.031715 33.064266,83.341713 32.307640,83.784912 
z"/>
<path fill="#454A61" opacity="1.000000" stroke="none" 
	d="
M82.015190,78.714493 
	C82.950981,80.427429 82.473221,81.841331 82.015839,83.628342 
	C80.933327,84.000000 79.866661,84.000000 78.399994,84.000000 
	C74.785362,82.445740 72.071007,80.132996 69.283211,77.881462 
	C67.552895,79.610809 68.817688,81.962479 67.230133,83.745232 
	C65.611115,84.000000 64.222221,84.000000 62.416664,84.000000 
	C63.436764,80.127434 62.319580,76.115128 62.648479,72.182236 
	C62.782215,70.583076 62.317699,68.747398 64.263542,67.824203 
	C66.233330,66.889648 67.326332,68.353607 68.573624,69.413239 
	C71.604156,71.987846 74.644150,74.551300 78.051888,77.150391 
	C79.805748,76.951843 80.770470,77.830032 82.015190,78.714493 
z"/>
<path fill="#41465C" opacity="1.000000" stroke="none" 
	d="
M10.836540,68.792618 
	C12.851116,66.052467 14.061004,68.318924 15.202912,69.258575 
	C18.243862,71.760887 21.112440,74.472664 24.427032,77.438988 
	C25.553434,74.793274 24.923544,72.496277 25.046520,70.307281 
	C25.126106,68.890633 25.053919,67.701363 27.041475,67.712349 
	C28.821180,67.722206 29.351219,68.556572 29.302282,70.156456 
	C29.170704,74.458092 29.078861,78.760941 28.985620,83.531654 
	C27.933331,84.000000 26.866661,84.000000 25.399996,84.000000 
	C21.026190,82.178215 18.109818,78.878746 14.191029,76.419189 
	C13.391115,76.207169 12.941267,76.049324 12.174999,75.688583 
	C11.666373,75.343704 11.483455,75.174805 11.113585,74.680817 
	C10.279154,72.644348 10.415958,70.904900 10.836540,68.792618 
z"/>
<path fill="#45475C" opacity="1.000000" stroke="none" 
	d="
M95.416664,84.000000 
	C97.248093,78.084915 101.569832,73.529778 105.269859,68.590309 
	C106.963524,66.329315 109.132034,67.017509 110.634819,69.076591 
	C112.861885,72.128052 114.899811,75.317558 117.101578,78.802727 
	C116.113953,80.205765 114.787727,80.242928 113.032776,80.026360 
	C111.642326,79.631195 110.850929,78.996712 109.882507,77.998672 
	C108.707100,76.912094 108.266640,74.491440 106.230057,77.008575 
	C105.956902,77.464722 105.844475,77.645409 105.541061,78.081116 
	C104.787399,78.962624 104.168571,79.540092 103.504532,80.506180 
	C102.508263,81.828445 101.775406,82.962097 100.264542,83.793068 
	C98.611107,84.000000 97.222221,84.000000 95.416664,84.000000 
z"/>
<path fill="#35384B" opacity="1.000000" stroke="none" 
	d="
M33.772469,68.199249 
	C39.359322,67.950516 44.732014,67.950516 50.225960,67.950516 
	C49.359478,72.017014 46.338982,70.970642 43.870216,71.412346 
	C41.778610,71.786568 38.717293,69.645828 37.840836,73.856537 
	C38.049549,74.461220 38.149723,74.640747 38.153633,75.111359 
	C37.497051,76.330437 37.722122,77.382210 37.589386,78.687653 
	C37.642754,80.397194 37.695232,81.796547 37.873856,83.597946 
	C36.611111,84.000000 35.222221,84.000000 33.416664,84.000000 
	C32.869045,83.834587 32.738087,83.669167 32.794472,83.248688 
	C33.036308,78.617722 33.090801,74.241814 33.196106,69.445885 
	C33.350712,68.833229 33.454510,68.640602 33.772469,68.199249 
z"/>
<path fill="#474A65" opacity="1.000000" stroke="none" 
	d="
M1.000000,65.469376 
	C4.776165,65.644371 6.145844,67.840492 5.859118,71.651291 
	C5.574103,75.439362 5.819067,79.267303 5.915813,83.538879 
	C2.096299,84.719368 0.363437,83.636383 0.888554,79.173584 
	C1.401067,74.817909 1.000000,70.354736 1.000000,65.469376 
z"/>
<path fill="#4C5368" opacity="1.000000" stroke="none" 
	d="
M54.416668,84.000000 
	C54.038815,79.546387 54.079445,75.092796 54.115425,70.639160 
	C54.127491,69.145859 53.908176,67.552246 56.218807,67.587677 
	C58.340923,67.620209 59.004665,68.613998 58.937061,70.691177 
	C58.802917,74.813026 58.910458,78.942741 58.959057,83.534607 
	C57.611111,84.000000 56.222221,84.000000 54.416668,84.000000 
z"/>
<path fill="#474D61" opacity="1.000000" stroke="none" 
	d="
M86.416664,84.000000 
	C86.080505,79.553391 86.202759,75.106956 86.220520,70.660095 
	C86.227417,68.934090 86.523865,67.882622 88.654884,67.926033 
	C90.728775,67.968277 91.058250,68.936668 91.020149,70.693398 
	C90.930748,74.815559 90.987953,78.940903 90.992905,83.532478 
	C89.611107,84.000000 88.222221,84.000000 86.416664,84.000000 
z"/>
<path fill="#E5A95D" opacity="1.000000" stroke="none" 
	d="
M111.817207,79.039116 
	C113.578926,79.130440 114.967026,79.196938 116.770012,79.210297 
	C118.244675,79.817307 119.304451,80.477463 120.682114,81.068810 
	C120.937866,82.581161 121.673653,84.334755 118.610245,84.099617 
	C113.746078,83.726265 108.832237,84.000000 103.469711,84.000000 
	C101.596581,80.766693 104.202034,80.121506 106.200409,79.416481 
	C107.836082,78.839409 109.671829,78.869514 111.817207,79.039116 
z"/>
<path fill="#E9EEF3" opacity="1.000000" stroke="none" 
	d="
M13.169509,75.341187 
	C18.449232,75.954369 20.713268,80.825760 24.840048,83.706696 
	C21.638712,84.000000 18.277426,84.000000 14.458069,84.000000 
	C12.975663,82.862015 12.569727,81.505165 12.582979,79.567978 
	C12.606663,77.989830 12.584691,76.837097 13.169509,75.341187 
z"/>
<path fill="#ECF0F5" opacity="1.000000" stroke="none" 
	d="
M67.458069,84.000000 
	C67.000000,81.066002 67.000000,78.132004 67.000000,73.866814 
	C71.067871,77.478058 74.396454,80.432999 77.862518,83.693970 
	C74.638710,84.000000 71.277428,84.000000 67.458069,84.000000 
z"/>
<path fill="#F2E8D8" opacity="1.000000" stroke="none" 
	d="
M111.988281,78.845749 
	C111.089027,80.682266 109.519707,80.728439 107.782211,80.488663 
	C105.514847,80.175766 103.951462,81.163315 103.080963,83.665565 
	C102.250000,84.000000 101.500000,84.000000 100.375000,84.000000 
	C100.689636,82.754684 101.379265,81.509377 102.316139,80.076790 
	C103.462372,79.610588 103.981720,78.907257 104.387482,77.861588 
	C104.297653,77.545815 104.370567,77.410843 104.404732,77.342171 
	C106.143005,77.190033 107.623322,75.656090 109.856674,76.703011 
	C110.757423,77.481697 111.271576,78.054626 111.988281,78.845749 
z"/>
<path fill="#4C5C7D" opacity="1.000000" stroke="none" 
	d="
M69.456314,4.314155 
	C69.645073,2.748770 70.691139,2.143226 71.876907,1.277215 
	C73.388893,1.000000 74.777779,1.000000 76.583336,1.000000 
	C77.000000,1.000000 77.092308,1.383144 77.085358,1.580074 
	C77.373886,2.175919 77.538811,2.624902 77.508545,3.471419 
	C77.277351,4.017743 77.129738,4.209332 76.674850,4.590816 
	C75.256973,5.232226 74.066490,5.293186 72.554283,5.528108 
	C71.219933,5.599439 70.375473,5.258780 69.456314,4.314155 
z"/>
<path fill="#41465C" opacity="1.000000" stroke="none" 
	d="
M13.254945,78.638443 
	C13.481505,80.344627 13.616267,81.759422 13.875515,83.587112 
	C13.250000,84.000000 12.500000,84.000000 11.375000,84.000000 
	C9.960264,81.609291 10.805721,79.078766 10.199059,76.308960 
	C9.889655,75.814735 9.835101,75.648598 9.883091,75.241043 
	C10.379155,74.618996 10.845687,74.475464 11.699940,74.789490 
	C12.014762,75.010323 12.001019,75.000488 11.994924,74.994659 
	C13.119671,75.849686 12.898856,77.183189 13.254945,78.638443 
z"/>
<path fill="#282D43" opacity="1.000000" stroke="none" 
	d="
M9.853066,76.419510 
	C12.003238,78.114525 10.588692,80.760094 10.999404,83.568375 
	C11.000000,84.000000 10.500000,84.000000 10.250000,84.000000 
	C9.920641,81.619385 9.841282,79.238762 9.853066,76.419510 
z"/>
<path fill="#C6C9D3" opacity="1.000000" stroke="none" 
	d="
M32.770287,83.107841 
	C33.049267,83.160187 33.116714,83.326752 33.092079,83.746658 
	C33.000000,84.000000 32.500000,84.000000 32.250000,84.000000 
	C32.138512,83.706398 32.324764,83.447083 32.770287,83.107841 
z"/>
<path fill="#3A3F54" opacity="1.000000" stroke="none" 
	d="
M55.649483,45.633797 
	C56.781864,45.494049 57.564865,45.502453 58.673828,45.734131 
	C58.999786,45.957405 59.487915,46.064018 59.737431,46.051689 
	C64.888672,44.733971 69.897293,43.654533 73.612511,39.775711 
	C77.380325,35.841976 80.426964,31.663586 78.106369,25.389807 
	C77.151848,23.903765 77.529762,23.126173 79.059479,22.530811 
	C79.691193,22.588245 79.935043,22.673828 80.454781,23.029913 
	C82.086601,26.472605 84.846939,29.186964 83.805214,33.444653 
	C82.858902,35.214214 81.568504,36.355305 81.088501,37.992859 
	C80.748314,39.153412 80.631050,40.323723 81.622124,41.225903 
	C82.805229,42.302879 83.750130,41.233257 85.084633,40.657608 
	C85.656204,40.589085 85.889702,40.619602 86.359711,40.912464 
	C85.141991,46.224899 81.830727,49.841541 77.315643,52.872772 
	C73.153923,53.166862 69.849609,55.901581 65.503876,55.314667 
	C64.487030,55.293682 63.823677,55.189438 62.858482,54.939934 
	C61.785511,54.550858 61.120235,54.016846 59.973515,53.891865 
	C59.248936,53.862591 58.831573,53.829357 58.093872,53.728672 
	C57.119110,53.534195 56.478115,53.340488 55.480759,53.117928 
	C53.924053,52.639248 52.980793,51.917263 52.255531,50.418602 
	C51.731171,47.558590 52.892025,46.208340 55.649483,45.633797 
z"/>
<path fill="#D79A4E" opacity="1.000000" stroke="none" 
	d="
M66.932053,56.576340 
	C55.679943,61.458122 39.686424,53.691174 35.117123,41.400204 
	C32.570972,34.551315 32.411755,27.735674 36.544724,20.976501 
	C38.331284,21.057373 39.021862,22.202658 39.820885,23.713696 
	C40.031837,28.423267 39.774574,32.890762 41.126389,37.571075 
	C41.521702,38.874752 42.058254,39.743771 42.757233,40.897186 
	C43.175663,41.779549 43.421032,42.381104 43.863686,43.217529 
	C44.117931,43.632172 44.222088,43.790352 44.497261,44.162727 
	C44.921349,44.631580 45.187233,44.871967 45.688557,45.251373 
	C46.046410,45.526890 46.184158,45.646305 46.498791,45.976791 
	C47.003334,46.641529 47.313667,47.108437 47.910980,47.722149 
	C48.440029,48.193157 48.758499,48.456451 49.344139,48.920532 
	C53.583206,53.071705 58.740559,54.148411 63.976276,54.992367 
	C65.116760,55.176205 66.336868,55.014187 66.932053,56.576340 
z"/>
<path fill="#3F4461" opacity="1.000000" stroke="none" 
	d="
M80.207474,22.628937 
	C79.129028,23.062414 78.311066,23.311827 78.044624,24.692739 
	C73.022804,21.821819 68.436523,24.251011 63.414391,26.036283 
	C61.414501,25.961372 60.147224,25.379126 59.854324,23.282524 
	C63.348713,18.635395 68.002991,16.768223 73.611740,16.034176 
	C74.674225,17.259909 74.908005,18.628290 76.819870,18.908503 
	C78.518433,19.157446 80.403870,19.947117 80.207474,22.628937 
z"/>
<path fill="#4B5071" opacity="1.000000" stroke="none" 
	d="
M80.035843,22.941708 
	C79.704926,20.712303 77.863083,20.433596 76.203079,19.921627 
	C74.618027,19.432775 73.053146,18.927713 73.964226,16.385971 
	C81.735237,15.286776 86.341225,18.502018 87.849014,26.025070 
	C88.327728,28.413601 88.216202,30.920429 88.224106,33.698441 
	C85.223602,35.165974 84.626457,33.026676 84.119057,31.131227 
	C83.380737,28.373211 82.291725,25.823942 80.318451,23.264261 
	C80.067734,22.980328 80.041435,22.958778 80.035843,22.941708 
z"/>
<path fill="#44414C" opacity="1.000000" stroke="none" 
	d="
M42.387581,42.176430 
	C41.420486,40.977936 40.891254,39.914097 41.094849,38.266350 
	C45.508865,41.024166 49.519722,44.778900 55.621517,45.364998 
	C55.766388,47.363125 52.502960,46.868202 52.988060,49.662430 
	C51.288670,51.407188 49.963150,50.067089 48.189194,49.229164 
	C47.534111,48.954792 47.298050,48.786488 47.036221,48.327728 
	C46.580326,47.621803 46.531528,47.000877 46.071198,46.274632 
	C45.817604,46.110958 45.909309,46.088970 45.895428,46.134033 
	C45.616127,45.568096 45.024990,45.505535 44.290329,45.144623 
	C44.092518,44.937687 44.003960,44.976711 44.035675,44.940163 
	C43.246826,44.258072 43.665649,42.892822 42.387581,42.176430 
z"/>
<path fill="#3F4461" opacity="1.000000" stroke="none" 
	d="
M80.054672,23.362553 
	C82.507858,23.328867 83.511230,24.864433 84.096619,27.171240 
	C84.707954,29.580290 84.710564,32.419689 87.715286,33.957222 
	C88.763969,35.407936 87.353119,36.182465 87.053802,37.653557 
	C86.989983,38.451588 86.996193,38.895611 87.009819,39.672607 
	C87.165237,40.311024 87.141655,40.602528 86.771057,41.027458 
	C86.331642,41.141102 86.067055,41.107395 85.404953,41.028152 
	C82.344727,39.597008 82.219009,37.216827 82.763901,34.329971 
	C84.193245,29.949194 80.143127,27.416224 80.054672,23.362553 
z"/>
<path fill="#C88E41" opacity="1.000000" stroke="none" 
	d="
M40.195480,23.700016 
	C38.235428,24.041256 37.840744,22.545374 36.984100,21.071125 
	C37.368732,17.900188 39.611889,16.277351 41.766541,14.266253 
	C43.738926,14.864439 43.851662,16.138809 43.277802,18.035904 
	C42.760342,20.397673 42.054230,22.188532 40.195480,23.700016 
z"/>
<path fill="#B2854D" opacity="1.000000" stroke="none" 
	d="
M43.452496,18.234964 
	C42.908409,17.240782 42.645489,16.041136 42.232578,14.506080 
	C44.926155,11.190033 48.022736,8.776036 53.829521,9.020297 
	C49.510609,12.262650 46.230461,14.742023 43.452496,18.234964 
z"/>
<path fill="#34384C" opacity="1.000000" stroke="none" 
	d="
M82.315277,78.545502 
	C80.875305,78.992546 79.460152,79.227760 78.635864,77.367401 
	C78.419525,76.077003 78.415604,74.972481 78.537796,73.473373 
	C80.702438,71.604851 77.770622,70.225143 78.804436,68.508698 
	C81.492332,67.272888 82.302818,68.789467 82.430878,70.757095 
	C82.590073,73.203110 82.442383,75.669106 82.315277,78.545502 
z"/>
<path fill="#533B27" opacity="1.000000" stroke="none" 
	d="
M48.011089,49.335670 
	C49.296741,49.353397 50.760811,49.671360 52.600441,49.998695 
	C53.479584,51.028370 54.243324,51.723804 55.709522,51.986549 
	C56.435802,52.481915 57.009327,52.499500 57.775406,52.772400 
	C58.446499,52.948132 58.886616,52.968128 59.657173,52.991058 
	C60.579597,53.017380 61.120548,53.187046 61.811958,53.742313 
	C62.769379,53.957973 63.507530,53.985268 64.615028,54.016743 
	C66.504196,55.255566 68.667542,53.681206 70.099823,55.590240 
	C69.225800,56.268822 68.374657,56.555233 67.175064,56.883198 
	C60.315613,55.258728 53.425961,54.560879 48.011089,49.335670 
z"/>
<path fill="#4C4D5A" opacity="1.000000" stroke="none" 
	d="
M59.668976,23.103415 
	C60.409008,24.276489 61.687176,24.762896 62.850372,25.816191 
	C60.600304,27.759739 58.174778,29.437023 55.320599,31.410727 
	C54.646515,27.244593 57.640091,25.574062 59.668976,23.103415 
z"/>
<path fill="#3F465A" opacity="1.000000" stroke="none" 
	d="
M76.919106,4.308721 
	C76.922096,3.476682 76.950447,2.989412 77.028595,2.139574 
	C80.780548,3.193151 81.641174,6.178296 80.545967,9.471958 
	C79.328041,13.134695 76.414574,14.497253 72.283508,13.230452 
	C71.816635,12.548761 71.864960,12.119772 72.459137,11.518028 
	C73.351189,10.991610 74.015030,10.813964 75.000427,10.539772 
	C77.857849,9.074074 77.762238,6.964798 76.919106,4.308721 
z"/>
<path fill="#3F3B44" opacity="1.000000" stroke="none" 
	d="
M70.434151,56.013412 
	C68.886742,54.391876 66.856766,55.487492 65.224854,54.280796 
	C68.621490,53.966164 72.198708,54.153706 74.991150,50.875362 
	C76.235588,49.414394 76.845985,50.991573 76.985367,52.618748 
	C75.316811,54.781731 73.058067,55.421101 70.434151,56.013412 
z"/>
<path fill="#484E69" opacity="1.000000" stroke="none" 
	d="
M73.220436,11.648689 
	C72.750198,12.106087 72.485954,12.324259 72.109848,12.776711 
	C68.135391,11.286766 67.300102,8.426689 69.065002,4.344802 
	C69.983498,4.279084 70.703682,4.533978 71.688461,4.910842 
	C72.355659,5.557750 72.273125,6.160502 72.233383,7.055304 
	C72.329445,8.794741 73.865479,9.812537 73.220436,11.648689 
z"/>
<path fill="#2D3142" opacity="1.000000" stroke="none" 
	d="
M37.858467,75.117203 
	C38.042919,74.717842 38.028820,74.492722 37.989098,74.387207 
	C40.705357,74.306793 43.461338,74.331879 46.607578,74.437149 
	C47.349743,74.731155 47.623672,75.020607 47.867397,75.677170 
	C47.949337,78.590714 45.966080,77.529556 44.377724,77.690552 
	C43.563202,77.311058 43.036800,77.146576 42.198135,77.493729 
	C41.700085,77.660851 41.451061,77.686485 40.849224,77.583557 
	C40.496410,77.454994 40.675667,77.155045 40.675667,77.155045 
	C40.675667,77.155045 40.333427,77.152710 40.427040,77.302811 
	C40.285580,77.534912 40.050510,77.616913 39.443268,77.668083 
	C38.290474,77.137825 37.774300,76.464180 37.858467,75.117203 
z"/>
<path fill="#454A61" opacity="1.000000" stroke="none" 
	d="
M78.699631,68.417038 
	C78.036270,69.887924 83.905434,71.168915 78.971642,73.042816 
	C78.566826,71.582916 78.469757,70.087036 78.699631,68.417038 
z"/>
<path fill="#585E72" opacity="1.000000" stroke="none" 
	d="
M37.755962,74.834183 
	C38.329391,75.439911 38.615868,76.161980 38.986721,77.260651 
	C38.692944,77.967728 38.314785,78.298210 37.763451,78.813263 
	C37.867290,77.639229 33.575176,76.417511 37.755962,74.834183 
z"/>
<path fill="#282D43" opacity="1.000000" stroke="none" 
	d="
M11.841965,74.632019 
	C11.563776,75.011040 11.112791,75.011749 10.323721,75.006042 
	C9.670424,72.941681 9.431853,70.885704 10.537777,68.640274 
	C11.140184,70.373703 10.655658,72.408394 11.841965,74.632019 
z"/>
<path fill="#585E72" opacity="1.000000" stroke="none" 
	d="
M48.197235,75.922394 
	C47.605068,75.704521 47.305561,75.430153 47.001945,74.836555 
	C47.875114,74.073685 48.898018,73.791405 49.493122,74.693031 
	C49.880215,75.279488 49.108475,75.694603 48.197235,75.922394 
z"/>
<path fill="#585E72" opacity="1.000000" stroke="none" 
	d="
M42.136345,77.767220 
	C42.293678,76.569756 42.862049,76.169228 43.953735,77.312927 
	C43.483521,77.718658 42.903553,77.808937 42.136345,77.767220 
z"/>
<path fill="#39415C" opacity="1.000000" stroke="none" 
	d="
M87.159256,39.833115 
	C86.332458,39.585865 85.988525,39.072014 86.765823,38.158016 
	C87.090324,38.558582 87.196114,39.109608 87.159256,39.833115 
z"/>
<path fill="#44414C" opacity="1.000000" stroke="none" 
	d="
M59.751915,45.877243 
	C59.764767,46.487576 59.518806,46.818272 59.042511,46.089622 
	C59.172153,45.876640 59.344517,45.795879 59.751915,45.877243 
z"/>
<path fill="#585E72" opacity="1.000000" stroke="none" 
	d="
M40.513252,77.413177 
	C40.454044,77.343987 40.315800,77.221870 40.332996,77.128349 
	C40.415745,76.678375 40.552845,76.676872 40.591934,77.284195 
	C40.496410,77.454994 40.505859,77.373436 40.513252,77.413177 
z"/>
<path fill="#585E72" opacity="1.000000" stroke="none" 
	d="
M33.699032,67.975464 
	C33.959438,68.265724 33.840240,68.541115 33.437981,68.901260 
	C33.301754,68.684036 33.356594,68.342224 33.699032,67.975464 
z"/>
<path fill="#282D43" opacity="1.000000" stroke="none" 
	d="
M13.455625,78.539658 
	C11.624957,78.366692 12.103916,76.891853 11.990793,75.325150 
	C12.285462,74.978951 12.581251,74.990570 13.093914,74.980316 
	C13.395925,76.007790 13.480215,77.078636 13.455625,78.539658 
z"/>
<path fill="#E8EBF3" opacity="1.000000" stroke="none" 
	d="
M110.162430,76.572189 
	C108.547791,77.006470 107.048546,78.349136 104.836975,77.485825 
	C105.984886,75.106758 107.011147,70.114426 110.162430,76.572189 
z"/>
<path fill="#E8EBF3" opacity="1.000000" stroke="none" 
	d="
M104.057831,77.711334 
	C104.935638,78.707222 104.764275,79.537437 102.957153,79.874481 
	C102.981583,79.218628 103.399796,78.547737 104.057831,77.711334 
z"/>
<path fill="#585E72" opacity="1.000000" stroke="none" 
	d="
M35.471687,78.514877 
	C35.454224,78.479126 35.489147,78.550621 35.471687,78.514877 
z"/>
<path fill="#484E69" opacity="1.000000" stroke="none" 
	d="
M76.653076,3.974413 
	C80.791969,6.654024 78.648956,9.114011 76.282120,11.696690 
	C74.369217,10.251754 75.803795,8.305007 75.266266,6.259138 
	C75.239090,5.447493 75.339828,5.000124 75.725929,4.290212 
	C75.931305,4.010479 76.412407,3.984876 76.653076,3.974413 
z"/>
<path fill="#4B5689" opacity="1.000000" stroke="none" 
	d="
M75.570587,4.007204 
	C75.951042,4.450058 75.970787,4.889636 75.990425,5.659413 
	C75.433197,9.346835 74.054298,10.370688 71.172775,7.311341 
	C71.247612,6.511358 71.497391,6.024673 71.850105,5.285400 
	C72.774963,3.855178 74.021194,4.020657 75.570587,4.007204 
z"/>
<path fill="#39415C" opacity="1.000000" stroke="none" 
	d="
M82.650574,34.055313 
	C83.566971,36.103081 84.136993,38.211334 84.857239,40.651108 
	C84.789650,42.860275 83.912224,44.381012 81.872734,43.685520 
	C79.835571,42.990829 78.856659,40.945312 79.295128,38.927940 
	C79.689583,37.113033 80.317696,35.096214 82.650574,34.055313 
z"/>
<path fill="#3F3B44" opacity="1.000000" stroke="none" 
	d="
M61.986992,53.648182 
	C61.467373,53.780132 60.903519,53.629593 60.163643,53.236519 
	C60.860016,51.957081 61.498940,52.148254 61.986992,53.648182 
z"/>
<path fill="#3F3B44" opacity="1.000000" stroke="none" 
	d="
M57.830971,52.700356 
	C57.460045,52.785240 56.913704,52.642345 56.198250,52.265694 
	C56.571274,52.178818 57.113415,52.325699 57.830971,52.700356 
z"/>
<path fill="#533B27" opacity="1.000000" stroke="none" 
	d="
M42.212677,42.266945 
	C43.536755,42.107990 44.028030,42.972397 44.053585,44.568096 
	C43.463535,44.124866 42.859676,43.346111 42.212677,42.266945 
z"/>
<path fill="#533B27" opacity="1.000000" stroke="none" 
	d="
M44.201897,45.225712 
	C44.622704,45.162910 45.152885,45.388130 45.782310,45.896225 
	C45.358120,45.957310 44.834698,45.735523 44.201897,45.225712 
z"/>
<path fill="#533B27" opacity="1.000000" stroke="none" 
	d="
M45.758907,46.426392 
	C46.193153,46.568619 46.568703,47.026283 46.946106,47.804436 
	C46.532043,47.663895 46.116127,47.202858 45.758907,46.426392 
z"/>
<path fill="#43497C" opacity="1.000000" stroke="none" 
	d="
M70.773560,7.190034 
	C72.560638,7.201039 74.445007,9.596714 75.745216,6.163686 
	C78.126549,7.694150 75.741806,9.408536 75.980988,11.466408 
	C75.224297,11.856089 74.488129,11.896523 73.383202,11.912436 
	C73.546432,9.645345 70.066643,9.597605 70.773560,7.190034 
z"/>
</svg>